Coordinates
version=1
nRows=14
nColumns=40
inDegrees=yes

Units are S.I. units (second, meters, Newtons, ...)
Angles are in degrees.

endheader
time	pelvis_tilt	pelvis_list	pelvis_rotation	pelvis_tx	pelvis_ty	pelvis_tz	hip_flexion_r	hip_adduction_r	hip_rotation_r	knee_angle_r	knee_angle_r_beta	ankle_angle_r	subtalar_angle_r	mtp_angle_r	hip_flexion_l	hip_adduction_l	hip_rotation_l	knee_angle_l	knee_angle_l_beta	ankle_angle_l	subtalar_angle_l	mtp_angle_l	lumbar_extension	lumbar_bending	lumbar_rotation	arm_flex_r	arm_add_r	arm_rot_r	elbow_flex_r	pro_sup_r	wrist_flex_r	wrist_dev_r	arm_flex_l	arm_add_l	arm_rot_l	elbow_flex_l	pro_sup_l	wrist_flex_l	wrist_dev_l
     22.30750000	     -2.92726305	     -3.87078074	      0.96072462	      1.11727681	      0.93589373	      0.41551585	     33.21410368	     -6.26877633	     -7.27392542	     60.39314388	     60.39314388	      1.12084340	    -17.25295543	      4.51991469	      9.09407586	     -3.67858258	    -10.64935725	     18.03837387	     18.03837387	     13.62693067	     -9.11835929	     -2.78145551	     -9.68649328	      5.33749727	      0.76627665	     -0.69806596	    -14.86686602	     -2.18130206	     38.26422418	     46.68780245	      0.00000000	      0.00000000	     18.50084515	    -13.78914972	      5.27492278	     37.06295396	     45.91239243	      0.00000000	      0.00000000
     22.31871429	     -2.86040360	     -3.86626465	      0.79974251	      1.11669232	      0.93585904	      0.41566922	     33.49844364	     -6.14052307	     -7.49472111	     57.65366358	     57.65366358	      1.17665001	    -17.02501170	      4.81408738	      8.09461065	     -3.66588063	    -10.91682582	     17.46349911	     17.46349911	     13.92903520	     -8.70309614	     -2.85741751	     -9.88473010	      5.39534870	      1.03734939	     -1.58549055	    -14.59171086	     -1.78670706	     36.87151190	     46.69968175	      0.00000000	      0.00000000	     20.26911040	    -13.97007439	      5.19746518	     38.20788489	     45.95346554	      0.00000000	      0.00000000
     22.32992857	     -2.86768406	     -3.82518364	      0.67156173	      1.11611103	      0.93557659	      0.41594125	     33.71710259	     -6.07001723	     -7.83556778	     54.64821359	     54.64821359	      1.23408939	    -16.58386666	      4.98631434	      7.23290839	     -3.64410314	    -11.30219932	     16.98835892	     16.98835892	     14.22140129	     -8.18881792	     -3.03186586	    -10.00430227	      5.37553319	      1.19073681	     -2.32063122	    -14.26785747	     -1.34163189	     35.35433086	     46.71667740	      0.00000000	      0.00000000	     21.91133470	    -14.14474429	      5.16820800	     39.29659682	     45.98601445	      0.00000000	      0.00000000
     22.34114286	     -2.91652267	     -3.74442962	      0.53289810	      1.11557446	      0.93504521	      0.41635055	     33.82551536	     -5.97626671	     -8.12525366	     51.31741970	     51.31741970	      0.82940864	    -16.13784790	      3.65174901	      6.44864651	     -3.66196540	    -12.03441350	     16.61754641	     16.61754641	     14.63042169	     -7.05834054	     -3.57288073	     -9.99229825	      5.24706029	      0.73669844	     -1.57593397	    -13.67232290	      0.28887205	     30.81625448	     46.74367533	      0.00000000	      0.00000000	     22.93849890	    -14.98354742	      5.54574910	     41.33271245	     45.99254718	      0.00000000	      0.00000000
     22.35235714	     -2.95861293	     -3.66463851	      0.43647077	      1.11511816	      0.93453552	      0.41672211	     33.78832152	     -5.88398644	     -8.51308999	     47.78025766	     47.78025766	      0.95178024	    -15.15206936	      3.68639468	      5.58148217	     -3.56703721	    -12.29359399	     16.07045403	     16.07045403	     14.93331138	     -6.62228453	     -3.66580576	    -10.05132114	      5.19699746	      0.93129755	     -2.54756419	    -13.37472390	      0.63074283	     30.08322433	     46.73178361	      0.00000000	      0.00000000	     24.47706161	    -15.09779699	      5.37215706	     42.58368733	     46.04221546	      0.00000000	      0.00000000
     22.36357143	     -3.16631651	     -3.58631735	      0.37762467	      1.11465373	      0.93365494	      0.41723006	     33.79612605	     -5.75979890	     -8.96507247	     44.03105017	     44.03105017	      1.09853296	    -13.97007744	      3.77523963	      4.94147401	     -3.48929282	    -12.53249126	     15.59520275	     15.59520275	     15.23749273	     -6.16662969	     -3.82752073	     -9.91646058	      5.13540409	      0.93418502	     -3.47425843	    -12.95421577	      0.91021866	     29.51068305	     46.72191602	      0.00000000	      0.00000000	     25.92307880	    -15.32302997	      5.20345057	     43.70588550	     46.08640448	      0.00000000	      0.00000000
     22.37478571	     -3.13192324	     -3.46736756	      0.27601738	      1.11453718	      0.93307997	      0.41778629	     33.32645653	     -5.66122190	     -9.55172390	     40.00144449	     40.00144449	      1.19666212	    -12.26926065	      3.48420676	      3.91191495	     -3.38305330	    -13.05978486	     14.95671522	     14.95671522	     15.54335352	     -5.31712988	     -4.08773915	    -10.06698851	      5.02372348	      1.35913588	     -4.52997274	    -12.74979664	      1.32410914	     28.72758079	     46.70663330	      0.00000000	      0.00000000	     27.24620478	    -15.25585921	      5.01523332	     45.53636798	     46.13921515	      0.00000000	      0.00000000
     22.38600000	     -3.25319350	     -3.33882261	      0.20229316	      1.11449974	      0.93212212	      0.41853181	     32.88059345	     -5.50139315	    -10.17321598	     35.81766759	     35.81766759	      1.27482578	    -10.45170370	      3.21161938	      3.08826865	     -3.27519066	    -13.51580550	     14.38765699	     14.38765699	     15.87044311	     -4.51493672	     -4.38590491	    -10.01844410	      4.89563137	      1.53164865	     -5.54502328	    -12.43534497	      1.70551884	     28.25870044	     46.67982250	      0.00000000	      0.00000000	     28.36996281	    -15.37499405	      4.77692816	     47.45613340	     46.19579045	      0.00000000	      0.00000000
     22.39721429	     -3.44613118	     -3.24276835	      0.15402848	      1.11464456	      0.93093226	      0.41944312	     32.36732220	     -5.23417428	    -10.84225464	     31.54641374	     31.54641374	      1.34921862	     -8.59401620	      3.32048626	      2.35042094	     -3.20096924	    -13.83084226	     13.84587344	     13.84587344	     16.15996502	     -3.87613471	     -4.62257153	     -9.79836663	      4.77129746	      1.61303962	     -6.57850455	    -12.14336197	      1.96395195	     28.01116408	     46.65486088	      0.00000000	      0.00000000	     29.35937685	    -15.47098216	      4.54312901	     49.16920603	     46.24789898	      0.00000000	      0.00000000
     22.40842857	     -3.45879601	     -2.99199199	      0.09234174	      1.11523977	      0.92974123	      0.42037500	     31.58540830	     -5.18417491	    -11.81265668	     27.45636534	     27.45636534	      1.35555444	     -6.03456745	      2.74265190	      1.29842261	     -2.99459413	    -14.62414667	     13.15982242	     13.15982242	     16.47726952	     -2.49362215	     -5.16962096	     -9.88975082	      4.45556455	      1.66950876	     -7.91669792	    -12.04774415	      2.55605653	     28.72719232	     46.54248247	      0.00000000	      0.00000000	     29.39601779	    -15.86311164	      3.83977860	     53.60444263	     46.37690160	      0.00000000	      0.00000000
     22.41964286	     -3.57606257	     -2.93912129	      0.10873578	      1.11579932	      0.92835132	      0.42153033	     30.80134690	     -4.73977160	    -12.49450410	     23.39628129	     23.39628129	      1.31045854	     -4.29894011	      3.52965888	      0.51515448	     -2.96992568	    -14.74593491	     12.71918395	     12.71918395	     16.80204099	     -2.16756172	     -5.34104693	     -9.72601632	      4.40657448	      1.71202482	     -8.96807829	    -11.86011649	      2.77075795	     28.74840950	     46.50956106	      0.00000000	      0.00000000	     30.22479283	    -15.91125772	      3.55525884	     55.18489014	     46.43325541	      0.00000000	      0.00000000
     22.43085714	     -3.57333545	     -2.73568136	      0.10006875	      1.11676425	      0.92683578	      0.42273079	     30.08273094	     -4.58462031	    -13.52705956	     20.20013278	     20.20013278	      1.99195680	     -1.74925120	      5.48385190	     -0.51123396	     -2.80217864	    -15.19203120	     12.13816670	     12.13816670	     17.10818492	     -1.27230435	     -5.74217698	     -9.79537072	      4.17055360	      1.53634310	    -10.53430850	    -11.98316609	      3.33921035	     30.85348132	     46.33268096	      0.00000000	      0.00000000	     29.82003251	    -16.35392757	      2.45340240	     59.94345738	     46.61342614	      0.00000000	      0.00000000
     22.44207143	     -3.62251443	     -2.66192678	      0.12296199	      1.11783981	      0.92520337	      0.42418733	     29.34721261	     -4.16666914	    -14.26216524	     17.23169050	     17.23169050	      2.12418541	     -0.22135195	      6.67812392	     -1.41963708	     -2.76747247	    -15.28382043	     11.66449308	     11.66449308	     17.41385093	     -0.91430556	     -5.84820817	     -9.66498053	      4.04536737	      1.85298173	    -11.70825212	    -11.88978198	      3.59183471	     31.07341924	     46.28759367	      0.00000000	      0.00000000	     30.50571418	    -16.15993343	      2.11594974	     61.78047066	     46.68050214	      0.00000000	      0.00000000
     22.45328571	     -3.63492967	     -2.51755050	      0.14570074	      1.11910540	      0.92346391	      0.42562250	     28.83542421	     -3.95034777	    -15.08593079	     15.28210997	     15.28210997	      2.57488382	      1.38982225	      8.43747888	     -2.37476999	     -2.67226429	    -15.48388278	     11.21254832	     11.21254832	     17.83121791	     -0.37543973	     -5.95873873	     -9.62116276	      3.90969743	      1.96980937	    -13.15246761	    -11.94953428	      3.71896079	     32.51515052	     46.19065254	      0.00000000	      0.00000000	     30.54539533	    -16.16202963	      1.42390538	     65.13704633	     46.79960408	      0.00000000	      0.00000000
